HIERARCHY
ROOT Hips
{
 OFFSET 0.000000 0.000000 0.000000
 CHANNELS 6 Xposition Yposition Zposition Yrotation Xrotation Zrotation
 JOINT Chest
 {
  OFFSET 0.000000 9.585900 0.002600
  CHANNELS 3 Yrotation Xrotation Zrotation
  JOINT Chest2
  {
   OFFSET 0.000000 9.601200 -0.005300
   CHANNELS 3 Yrotation Xrotation Zrotation
   JOINT Chest3
   {
    OFFSET 0.000000 9.561800 0.000000
    CHANNELS 3 Yrotation Xrotation Zrotation
    JOINT Chest4
    {
     OFFSET 0.000000 9.552100 0.000000
     CHANNELS 3 Yrotation Xrotation Zrotation
     JOINT Neck
     {
      OFFSET 0.000000 14.453000 0.000000
      CHANNELS 3 Yrotation Xrotation Zrotation
      JOINT Head
      {
       OFFSET 0.000000 8.936500 -0.011300
       CHANNELS 3 Yrotation Xrotation Zrotation
       End Site
       {
        OFFSET 0.000000 17.073600 -0.006000
       }
      }
     }
     JOINT RightCollar
     {
      OFFSET -2.921100 9.558500 0.000000
      CHANNELS 3 Yrotation Xrotation Zrotation
      JOINT RightShoulder
      {
       OFFSET -13.519700 0.000000 0.000000
       CHANNELS 3 Yrotation Xrotation Zrotation
       JOINT RightElbow
       {
        OFFSET 0.000000 -29.696600 0.000000
        CHANNELS 3 Yrotation Xrotation Zrotation
        JOINT RightWrist
        {
         OFFSET 0.000000 -24.004700 0.000000
         CHANNELS 3 Yrotation Xrotation Zrotation
         End Site
         {
          OFFSET 0.000000 -17.728500 0.000000
         }
        }
       }
      }
     }
     JOINT LeftCollar
     {
      OFFSET 2.921100 9.558500 0.000000
      CHANNELS 3 Yrotation Xrotation Zrotation
      JOINT LeftShoulder
      {
       OFFSET 13.519700 0.000000 0.000000
       CHANNELS 3 Yrotation Xrotation Zrotation
       JOINT LeftElbow
       {
        OFFSET 0.000000 -29.696600 0.000000
        CHANNELS 3 Yrotation Xrotation Zrotation
        JOINT LeftWrist
        {
         OFFSET 0.000000 -24.004700 0.000000
         CHANNELS 3 Yrotation Xrotation Zrotation
         End Site
         {
          OFFSET 0.000000 -17.728500 0.000000
         }
        }
       }
      }
     }
    }
   }
  }
 }
 JOINT RightHip
 {
  OFFSET -7.771700 -0.012900 -0.001300
  CHANNELS 3 Yrotation Xrotation Zrotation
  JOINT RightKnee
  {
   OFFSET 0.000000 -40.869800 0.001200
   CHANNELS 3 Yrotation Xrotation Zrotation
   JOINT RightAnkle
   {
    OFFSET 0.000000 -39.717900 0.002100
    CHANNELS 3 Yrotation Xrotation Zrotation
    JOINT RightToe
    {
     OFFSET 0.000000 -4.965400 11.033500
     CHANNELS 3 Yrotation Xrotation Zrotation
     End Site
     {
      OFFSET 0.000000 -1.423100 5.872300
     }
    }
   }
  }
 }
 JOINT LeftHip
 {
  OFFSET 7.771700 -0.012900 -0.001300
  CHANNELS 3 Yrotation Xrotation Zrotation
  JOINT LeftKnee
  {
   OFFSET 0.000000 -40.869800 0.001200
   CHANNELS 3 Yrotation Xrotation Zrotation
   JOINT LeftAnkle
   {
    OFFSET 0.000000 -39.717900 0.002100
    CHANNELS 3 Yrotation Xrotation Zrotation
    JOINT LeftToe
    {
     OFFSET 0.000000 -4.965400 11.033500
     CHANNELS 3 Yrotation Xrotation Zrotation
     End Site
     {
      OFFSET 0.000000 -1.423100 5.872300
     }
    }
   }
  }
 }
}
MOTION
Frames: 14
Frame Time: 0.008333
0.000000 85.388000 0.000000 0.000000 -5.767877 0.000000 0.000000 11.653817 0.000000 0.000000 -5.885947 0.000000 0.000000 -0.000000 0.000000 0.000000 -0.000000 0.000000 0.000000 12.528835 0.000000 0.000000 0.711642 0.000000 0.000000 -0.000000 0.000000 0.000000 0.000000 -90.000000 0.000000 -2.309062 0.000000 0.000000 2.309062 0.000000 0.000000 -0.000000 0.000000 0.000000 -0.000000 90.000000 0.000000 -2.309062 0.000000 0.000000 2.309062 0.000000 0.000000 8.520406 0.000000 0.000000 1.905762 0.000000 -0.000000 -4.658285 0.000000 0.000000 -0.000000 0.000000 0.000000 8.520406 0.000000 0.000000 1.905762 0.000000 -0.000000 -4.658285 0.000000 0.000000 -0.000000 0.000000
-76.855318 50.166585 -6.092809 166.227605 -11.523297 0.788717 2.455685 7.744245 1.087887 0.064594 0.353367 0.003663 0.205568 0.669132 0.017828 2.105845 7.322445 0.304147 -0.562423 16.233437 -1.399208 -0.549458 -5.647264 -2.399807 1.999066 8.279458 0.595896 -5.351554 -12.919702 -7.445555 -40.523337 -67.242425 63.014307 -3.173198 1.586544 -28.645901 -5.208712 4.842779 -0.801222 19.640986 -7.823155 1.535169 19.295655 -77.651071 -38.486111 1.217834 5.617608 13.362282 -2.362941 -69.503533 -5.476703 -128.879769 80.513087 -128.060319 -3.168633 -16.820724 0.477332 -0.534982 0.817925 -0.101083 -5.532780 -73.018026 19.393398 112.495200 77.950274 109.686810 -15.581124 -21.300947 0.245567 -0.100644 -1.053596 -0.123728
-76.859242 50.161357 -6.092641 166.138976 -11.523800 0.823398 2.433786 7.690365 1.043377 0.093335 0.368911 0.007603 0.252524 0.694449 0.023445 2.075578 7.296125 0.303970 -0.577149 16.048475 -1.408569 -0.570606 -5.990811 -2.413213 2.003723 8.216126 0.589063 -5.349648 -12.925134 -7.464594 -40.553819 -67.255364 63.044328 -3.165792 1.585366 -28.633528 -5.215767 4.762503 -0.793930 19.698014 -7.713343 1.553762 19.291798 -77.649677 -38.476339 1.210887 5.569805 13.367599 -2.097267 -69.516607 -5.549226 -128.682035 80.496664 -127.962010 -3.140792 -16.773758 0.607545 -0.645442 0.814030 -0.142722 -5.402677 -73.018339 19.336423 112.475766 77.924730 109.697823 -15.622185 -21.290124 0.213271 -0.071171 -1.069043 -0.097029
-76.855222 50.155035 -6.090362 166.064475 -11.526174 0.804191 2.427919 7.650618 1.056016 0.108991 0.376275 0.009465 0.256758 0.694855 0.026031 2.108676 7.308777 0.308420 -0.626067 15.843932 -1.412788 -0.599903 -6.324863 -2.417306 1.976717 8.128655 0.584627 -5.348548 -12.931787 -7.479142 -40.580156 -67.268204 63.071647 -3.160473 1.581206 -28.624436 -5.239396 4.682630 -0.784057 19.692135 -7.722411 1.553994 19.176365 -77.596538 -38.311152 1.207781 5.563084 13.374109 -1.850736 -69.531187 -5.545981 -128.337482 80.417737 -127.648550 -3.244330 -16.696404 0.690767 -0.601519 0.778478 -0.116664 -5.452875 -73.013235 19.457139 112.479140 77.906565 109.723321 -15.624370 -21.305955 0.188701 -0.032532 -1.039939 -0.065524
-76.857145 50.147601 -6.087395 166.017540 -11.519134 0.811108 2.400455 7.608683 1.038780 0.109298 0.375190 0.009579 0.265767 0.695727 0.026451 2.093722 7.282999 0.309723 -0.632732 15.682262 -1.414186 -0.636224 -6.647253 -2.412608 1.999205 8.076423 0.582496 -5.351518 -12.936091 -7.488931 -40.602683 -67.280132 63.094752 -3.154728 1.574307 -28.614533 -5.188570 4.693131 -0.784735 19.674343 -7.756551 1.551969 19.230201 -77.629886 -38.354164 1.230384 5.633084 13.408432 -1.619513 -69.553582 -5.603814 -128.080198 80.362236 -127.423731 -3.316150 -16.650436 0.750967 -0.571219 0.767497 -0.099440 -5.443130 -73.022055 19.484288 112.493466 77.893531 109.741918 -15.617924 -21.302599 0.187629 -0.027074 -1.040917 -0.069530
-76.856971 50.140179 -6.086873 165.919299 -11.531852 0.818020 2.420170 7.586047 1.032761 0.109597 0.373967 0.009754 0.266862 0.694129 0.025433 2.085291 7.256288 0.312522 -0.639799 15.528706 -1.412526 -0.678378 -6.956830 -2.401096 2.025783 8.023471 0.579489 -5.352249 -12.938020 -7.493912 -40.623875 -67.290010 63.110940 -3.144967 1.567739 -28.604472 -5.177806 4.627446 -0.773679 19.707246 -7.697012 1.564895 19.181272 -77.610012 -38.284689 1.242974 5.664047 13.427574 -1.479803 -69.548971 -5.581330 -127.929157 80.354324 -127.331415 -3.273059 -16.629096 0.810995 -0.625521 0.777614 -0.160661 -5.465024 -73.012252 19.577971 112.566920 77.868229 109.829019 -15.579307 -21.288911 0.147087 -0.019474 -1.064359 -0.061865
-76.845408 50.133345 -6.088840 165.782689 -11.578562 0.768968 2.481879 7.595823 1.091929 0.109869 0.372513 0.009912 0.212554 0.660864 0.019804 2.186925 7.299737 0.325517 -0.701330 15.340820 -1.405349 -0.726580 -7.253136 -2.383118 2.001212 7.928088 0.577882 -5.348307 -12.940096 -7.495111 -40.641062 -67.298787 63.119190 -3.134498 1.559241 -28.599163 -5.219762 4.520008 -0.755042 19.745228 -7.637356 1.578027 19.084613 -77.555939 -38.156528 1.227236 5.616696 13.413731 -1.374381 -69.512498 -5.409048 -127.596696 80.296198 -127.035461 -3.315717 -16.562484 0.870848 -0.632644 0.752868 -0.139538 -5.607652 -72.961184 19.853746 112.690897 77.850826 109.995277 -15.570996 -21.324320 0.089865 -0.052066 -1.042663 -0.033985
-76.844621 50.125334 -6.087365 165.681801 -11.592503 0.769057 2.497598 7.574420 1.092084 0.110093 0.370827 0.010023 0.192243 0.647650 0.018038 2.198903 7.278164 0.330020 -0.712801 15.202845 -1.397786 -0.782197 -7.536778 -2.356667 2.031365 7.878538 0.579804 -5.339375 -12.945511 -7.495052 -40.647248 -67.308332 63.117126 -3.128323 1.546273 -28.600769 -5.192695 4.482339 -0.747506 19.770897 -7.604900 1.588987 19.200203 -77.601617 -38.298460 1.254952 5.670466 13.459580 -1.171354 -69.511140 -5.379208 -127.252853 80.238614 -126.735534 -3.392707 -16.519182 0.938452 -0.606718 0.754063 -0.115472 -5.590083 -72.946178 19.941381 112.776294 77.852407 110.102847 -15.638410 -21.342561 0.091605 -0.043235 -1.035672 -0.032100
-76.844462 50.117416 -6.085733 165.577552 -11.607580 0.771886 2.512052 7.552560 1.089655 0.110171 0.368917 0.010201 0.192477 0.644389 0.018284 2.188194 7.244667 0.332164 -0.726678 15.071006 -1.385194 -0.844361 -7.808277 -2.320715 2.062573 7.835996 0.584945 -5.326028 -12.957269 -7.493520 -40.648832 -67.318117 63.111013 -3.123836 1.532750 -28.605632 -5.161376 4.447208 -0.740277 19.794601 -7.574108 1.599404 19.264632 -77.612735 -38.368874 1.262069 5.685781 13.476544 -1.005571 -69.507688 -5.331900 -126.951775 80.197168 -126.488524 -3.432913 -16.481227 0.994143 -0.592848 0.760592 -0.128277 -5.560786 -72.930121 20.020200 112.863250 77.850274 110.203405 -15.672333 -21.358397 0.092907 -0.013613 -1.032084 -0.029970
-76.842125 50.109582 -6.082150 165.476969 -11.617699 0.756738 2.520546 7.524357 1.104158 0.110132 0.366900 0.010431 0.192534 0.640852 0.018618 2.194253 7.224081 0.337028 -0.760471 14.931426 -1.367340 -0.912380 -8.067956 -2.275365 2.075865 7.785990 0.589864 -5.306919 -12.976711 -7.491868 -40.649414 -67.326001 63.101142 -3.115597 1.522797 -28.605537 -5.142129 4.400587 -0.732015 19.818092 -7.546932 1.607938 19.292251 -77.607901 -38.394713 1.262874 5.686525 13.477830 -0.899079 -69.509107 -5.227314 -126.638170 80.155240 -126.230401 -3.460389 -16.434357 1.039355 -0.596780 0.760407 -0.128354 -5.605282 -72.920634 20.169910 112.952211 77.843716 110.293689 -15.643237 -21.361845 0.079830 -0.004527 -1.035948 -0.024523
-76.842502 50.101930 -6.076868 165.410405 -11.617581 0.745696 2.491194 7.486062 1.107399 0.110063 0.364827 0.010659 0.192379 0.637269 0.019052 2.199126 7.203074 0.342427 -0.796165 14.798436 -1.344635 -0.986113 -8.315441 -2.219966 2.086755 7.741030 0.595482 -5.282010 -13.003248 -7.492224 -40.640022 -67.332248 63.079059 -3.101989 1.517249 -28.595158 -5.120620 4.355421 -0.725294 19.846360 -7.522550 1.616006 19.327430 -77.608691 -38.432771 1.241852 5.626205 13.443202 -0.801545 -69.521385 -5.151226 -126.335469 80.113954 -125.984743 -3.507536 -16.386315 1.114115 -0.582108 0.759041 -0.152394 -5.649604 -72.920139 20.288404 113.005991 77.844741 110.342091 -15.628305 -21.359253 0.073711 0.033084 -1.034487 -0.014830
-76.835949 50.096194 -6.075646 165.312523 -11.655297 0.704533 2.496012 7.483193 1.150199 0.109958 0.362643 0.010928 0.192106 0.633604 0.019494 2.203088 7.181275 0.347812 -0.833099 14.672635 -1.317281 -1.064316 -8.549624 -2.155162 2.095081 7.702895 0.602252 -5.257993 -13.034831 -7.493253 -40.624757 -67.341598 63.051674 -3.081091 1.518009 -28.572411 -5.102601 4.314552 -0.720160 19.879656 -7.500643 1.623072 19.375019 -77.616593 -38.485986 1.232369 5.608299 13.424301 -0.769398 -69.492999 -4.983269 -126.070262 80.062634 -125.736837 -3.577830 -16.344819 1.141732 -0.524347 0.750682 -0.147456 -5.757533 -72.876224 20.510339 113.062074 77.835934 110.404394 -15.630476 -21.370344 0.061134 0.051821 -1.032102 -0.009106
-76.839565 50.090557 -6.072230 165.184733 -11.667850 0.722543 2.523787 7.455683 1.140316 0.109790 0.360351 0.011243 0.191854 0.629720 0.020000 2.206888 7.158430 0.354003 -0.871702 14.554914 -1.286515 -1.147250 -8.768646 -2.083048 2.101099 7.670561 0.608687 -5.240899 -13.066879 -7.493002 -40.604323 -67.358186 63.021983 -3.049763 1.523188 -28.537344 -5.089314 4.279464 -0.715982 19.915074 -7.481255 1.628695 19.433319 -77.625350 -38.550452 1.230170 5.612109 13.409997 -0.565920 -69.491663 -4.957996 -125.747829 80.032625 -125.488109 -3.576354 -16.294620 1.191765 -0.579760 0.756280 -0.122219 -5.671438 -72.861350 20.560277 113.092758 77.810729 110.428554 -15.651988 -21.337967 0.052563 0.033508 -1.056490 0.002306
-76.848217 50.085254 -6.066628 165.103609 -11.663789 0.754973 2.552273 7.432150 1.115340 0.061826 0.336188 0.009933 0.191565 0.625589 0.020602 2.210776 7.134495 0.361481 -0.913116 14.445274 -1.252696 -1.236806 -8.972590 -2.003907 2.101822 7.640777 0.614744 -5.228245 -13.096273 -7.491691 -40.572209 -67.382490 62.985581 -3.003798 1.529038 -28.496147 -5.079944 4.248827 -0.712057 19.974606 -7.418768 1.632861 19.555730 -77.673709 -38.704034 1.229436 5.611969 13.397480 -0.347608 -69.505727 -5.003175 -125.412387 80.001385 -125.224787 -3.592762 -16.248841 1.264693 -0.611038 0.766188 -0.115558 -5.545327 -72.861338 20.519720 113.080702 77.805400 110.408890 -15.698161 -21.311853 0.062676 0.000161 -1.065221 0.002555
